<svg xmlns="http://www.w3.org/2000/svg" width="253.888" height="164.15" viewBox="0 0 253.888 164.15">
  <g id="Group_3314" data-name="Group 3314" transform="translate(-737.354 -412.718)">
    <g id="Group_3311" data-name="Group 3311" transform="translate(806.456 412.718)">
      <path id="Path_11489" data-name="Path 11489" d="M894.553,497.875V459.619c0-16.478,8.967-30.6,23.985-37.77a2.371,2.371,0,1,1,2.043,4.279,36.439,36.439,0,0,0-21.287,33.491v38.257" transform="translate(-894.553 -417.705)" fill="#d9d9d9"/>
      <path id="Path_11490" data-name="Path 11490" d="M951.362,415.882c1.193,2.853-.662,6.345-4.143,7.8s-7.27.322-8.461-2.531.662-6.344,4.142-7.8S950.169,413.03,951.362,415.882Z" transform="translate(-919.123 -412.718)" fill="#fff"/>
    </g>
    <g id="Group_3312" data-name="Group 3312" transform="translate(900.113 412.718)">
      <path id="Path_11491" data-name="Path 11491" d="M1146.87,497.875V459.619c0-16.478-8.967-30.6-23.985-37.77a2.371,2.371,0,1,0-2.043,4.279,36.44,36.44,0,0,1,21.287,33.491v38.257" transform="translate(-1114.27 -417.705)" fill="#d9d9d9"/>
      <path id="Path_11492" data-name="Path 11492" d="M1107.975,415.882c-1.194,2.853.661,6.345,4.143,7.8s7.27.322,8.462-2.531-.662-6.344-4.143-7.8S1109.167,413.03,1107.975,415.882Z" transform="translate(-1107.613 -412.718)" fill="#fff"/>
    </g>
    <g id="Group_3313" data-name="Group 3313" transform="translate(737.354 479.661)">
      <path id="Path_11493" data-name="Path 11493" d="M759.172,641.138a16.886,16.886,0,0,1-4.4-.55,31.6,31.6,0,0,1-4.087-1.415,25.865,25.865,0,0,1-3.773-2.044,37.209,37.209,0,0,1-3.459-2.594,29.1,29.1,0,0,1-4.519-7.309,20.014,20.014,0,0,1-1.317-4.461,19.589,19.589,0,0,1-.216-4.578,27.443,27.443,0,0,1,.393-4.854,24.206,24.206,0,0,1,1.14-4.185,34.67,34.67,0,0,1,2-3.871,17.97,17.97,0,0,1,2.515-3.282q1.729-1.257,3.459-2.338a30.062,30.062,0,0,1,3.773-1.985,23.116,23.116,0,0,1,4.087-1.238,22.229,22.229,0,0,1,4.4-.413v12.144l-3.616.707a10.525,10.525,0,0,0-1.808.884,4.941,4.941,0,0,0-1.415,1.278,7.312,7.312,0,0,0-1.061,1.395,10.766,10.766,0,0,0-.865,1.788l-.786,4.244a13.833,13.833,0,0,0,.177,2.28,7.31,7.31,0,0,0,.609,1.965,12.251,12.251,0,0,0,.865,1.828,6.891,6.891,0,0,0,1.061,1.434,14.09,14.09,0,0,0,1.533,1.277,7.359,7.359,0,0,0,1.69.884l3.616.826H802.56V565.063h12.38v63.892h6.091a2.825,2.825,0,0,0-2,.55,1.593,1.593,0,0,0-.354,1.533v7.939a1.673,1.673,0,0,0,.354,1.552,2.635,2.635,0,0,0,2,.609Zm17.017-60.09a8.008,8.008,0,0,1,4.048-2.142,13.692,13.692,0,0,1,4.795-.138,16.226,16.226,0,0,1,4.7,1.434,14.648,14.648,0,0,1,3.793,2.535l.825.825-4.6,6.406-1.1-1.336a8.183,8.183,0,0,0-2.24-1.789,5.52,5.52,0,0,0-2.633-.648l-2.279.628-1.533,1.258-1.179,1.611-.157,2.279.157,1.887,1.179,1.651,2.554,1.532,3.34.629h8.489v7.664H764.793v-7.664h8.135l-1.376-3.34q-.2-.55-.412-1.356a7.39,7.39,0,0,1-.216-1.906l.9-4.52a12.649,12.649,0,0,1,1.238-2.063,18.827,18.827,0,0,1,1.473-1.749Z" transform="translate(-737.354 -565.038)" fill="#fff"/>
      <path id="Path_11494" data-name="Path 11494" d="M922.459,680.595a2.694,2.694,0,0,1-1.867-.531,1.917,1.917,0,0,1-.57-1.474v-8.214a2.25,2.25,0,0,1,.334-1.4,2.032,2.032,0,0,1,1.12-.609H933.5V635.4h12.183v32.973h10.493a2.769,2.769,0,0,0-1.867.511,1.9,1.9,0,0,0-.57,1.494v8.214a1.673,1.673,0,0,0,.57,1.4,3.8,3.8,0,0,0,1.867.609Zm16.664,6.681a6.8,6.8,0,0,1,2.672.531,7,7,0,0,1,2.2,1.454,6.824,6.824,0,0,1,1.493,2.2,8.1,8.1,0,0,1,.629,2.81,7,7,0,0,1-.511,2.869,7.187,7.187,0,0,1-3.832,3.91,7.215,7.215,0,0,1-5.62-.079,6.947,6.947,0,0,1-2.259-1.651,7.064,7.064,0,0,1-1.435-2.456,7.164,7.164,0,0,1-.334-3.066,7.588,7.588,0,0,1,.747-2.555,7.428,7.428,0,0,1,1.513-2.063,7.017,7.017,0,0,1,2.122-1.4A6.593,6.593,0,0,1,939.122,687.276Z" transform="translate(-839.724 -604.455)" fill="#fff"/>
      <path id="Path_11495" data-name="Path 11495" d="M993.446,680.595a2.694,2.694,0,0,1-1.867-.531,1.916,1.916,0,0,1-.57-1.474v-8.214a2.249,2.249,0,0,1,.334-1.4,2.03,2.03,0,0,1,1.12-.609h12.026V635.4h12.183v32.973h10.493a2.766,2.766,0,0,0-1.866.511,1.9,1.9,0,0,0-.57,1.494v8.214a1.67,1.67,0,0,0,.57,1.4,3.79,3.79,0,0,0,1.866.609Zm8.292,6.524a6.864,6.864,0,0,1,4.912,2,7.266,7.266,0,0,1,1.513,2.24,8.008,8.008,0,0,1,.649,2.83,7.127,7.127,0,0,1-.511,2.888,7.032,7.032,0,0,1-1.553,2.358,7.607,7.607,0,0,1-2.338,1.592,6.5,6.5,0,0,1-2.829.55,6.856,6.856,0,0,1-5.109-2.279,7.485,7.485,0,0,1-1.454-2.5,7.085,7.085,0,0,1-.354-3.085,7.994,7.994,0,0,1,.746-2.594,7.066,7.066,0,0,1,1.533-2.1,7.183,7.183,0,0,1,2.161-1.4A6.728,6.728,0,0,1,1001.738,687.119Zm16.624.078a6.911,6.911,0,0,1,2.712.531,6.833,6.833,0,0,1,2.2,1.474,7.269,7.269,0,0,1,1.513,2.24,8.006,8.006,0,0,1,.648,2.83,7.121,7.121,0,0,1-2.063,5.247,7.642,7.642,0,0,1-2.339,1.591,6.51,6.51,0,0,1-2.83.55,6.852,6.852,0,0,1-5.109-2.28,7.5,7.5,0,0,1-1.455-2.5,7.083,7.083,0,0,1-.353-3.085,7.961,7.961,0,0,1,.747-2.594,7.063,7.063,0,0,1,1.532-2.1,7.207,7.207,0,0,1,2.161-1.395A6.731,6.731,0,0,1,1018.362,687.2Z" transform="translate(-879.506 -604.455)" fill="#fff"/>
      <path id="Path_11496" data-name="Path 11496" d="M1064.878,680.595a2.693,2.693,0,0,1-1.867-.531,1.918,1.918,0,0,1-.57-1.474v-8.214a2.249,2.249,0,0,1,.335-1.4,2.033,2.033,0,0,1,1.12-.609h12.026V635.4H1088.1v32.973H1098.6a2.769,2.769,0,0,0-1.867.511,1.9,1.9,0,0,0-.57,1.494v8.214a1.673,1.673,0,0,0,.57,1.4,3.8,3.8,0,0,0,1.867.609Zm16.663,6.681a6.806,6.806,0,0,1,2.673.531,7.007,7.007,0,0,1,2.2,1.454,6.822,6.822,0,0,1,1.493,2.2,8.1,8.1,0,0,1,.629,2.81,7,7,0,0,1-.511,2.869,7.187,7.187,0,0,1-3.832,3.91,7.215,7.215,0,0,1-5.62-.079,6.954,6.954,0,0,1-2.26-1.651,7.065,7.065,0,0,1-1.434-2.456,7.157,7.157,0,0,1-.334-3.066,7.573,7.573,0,0,1,.746-2.555,7.427,7.427,0,0,1,1.513-2.063,7.017,7.017,0,0,1,2.122-1.4A6.6,6.6,0,0,1,1081.541,687.276Z" transform="translate(-919.538 -604.455)" fill="#fff"/>
      <path id="Path_11497" data-name="Path 11497" d="M1158.522,601.963a21.691,21.691,0,0,1,3.4-2.594,27.978,27.978,0,0,1,3.93-2.2q1.631-.707,3.6-1.4a29.682,29.682,0,0,1,4.224-1.12,30.15,30.15,0,0,1,6.131-.334,16.55,16.55,0,0,1,4.932.57,44.823,44.823,0,0,1,6.308,1.592,29.571,29.571,0,0,1,5.522,2.535,29.938,29.938,0,0,1,4.893,3.576,40.78,40.78,0,0,1,4.048,4.205,23.823,23.823,0,0,1,3.1,4.834,55.246,55.246,0,0,1,2.279,5.424,43.2,43.2,0,0,1,1.631,5.817,39.972,39.972,0,0,1,.786,6.013v12.262h-77.265a2.7,2.7,0,0,1-1.867-.531,1.917,1.917,0,0,1-.57-1.474v-8.214a2.261,2.261,0,0,1,.334-1.375,1.942,1.942,0,0,1,1.081-.629h7.506l2.2-.982,1.415-2.358V565.006h12.38Zm14.384,6.485q-1.886.787-2.771,1.238a12.059,12.059,0,0,0-2,1.356,13.531,13.531,0,0,0-1.906,1.848q-.787.943-1.828,2.378a16.059,16.059,0,0,0-1.729,3.006q-.688,1.572-1.278,3.34a30.642,30.642,0,0,0-.963,3.616,32.565,32.565,0,0,0-.531,3.694h39.969a18.584,18.584,0,0,0-.374-3.694,33.475,33.475,0,0,0-.943-3.616,19.452,19.452,0,0,0-1.375-3.262,38.712,38.712,0,0,0-2.456-3.812,19.8,19.8,0,0,0-2.849-3.36,11.427,11.427,0,0,0-2.063-1.494q-.864-.451-1.808-.845a19.957,19.957,0,0,0-1.926-.688q-.983-.294-2.555-.687a16.39,16.39,0,0,0-3.772-.413A25.691,25.691,0,0,0,1172.906,608.447Z" transform="translate(-959.42 -565.006)" fill="#fff"/>
    </g>
  </g>
</svg>
